<svg id="Layer_1" data-name="Layer 1" xmlns="http://www.w3.org/2000/svg" viewBox="0 0 275.87 134.03"><defs><style>.cls-1{fill:#fff;}</style></defs><path class="cls-1" d="M16,51H259.87a16,16,0,0,1,16,16v0a16,16,0,0,1-16,16H16a0,0,0,0,1,0,0V51a0,0,0,0,1,0,0Z"/><path class="cls-1" d="M77.44,150.49H143a16,16,0,0,1,16,16v0a16,16,0,0,1-16,16H77.44a0,0,0,0,1,0,0v-32A0,0,0,0,1,77.44,150.49Z" transform="translate(-145.17 -0.64) rotate(-45)"/><path class="cls-1" d="M77.44,217.51H143a16,16,0,0,1,16,16v0a16,16,0,0,1-16,16H77.44a0,0,0,0,1,0,0v-32a0,0,0,0,1,0,0Z" transform="translate(137.67 -148.17) rotate(45)"/><rect class="cls-1" x="68.69" y="184" width="32" height="32" transform="translate(-178.68 -14.52) rotate(-45)"/></svg>