<svg id="Layer_1" data-name="Layer 1" xmlns="http://www.w3.org/2000/svg" viewBox="0 0 357.9 357.9"><defs><style>.cls-1{fill:#8c8e90;}</style></defs><path class="cls-1" d="M2.67,268.67H232.72a0,0,0,0,1,0,0v32.45a0,0,0,0,1,0,0H2.67a12.5,12.5,0,0,1-12.5-12.5v-7.45a12.5,12.5,0,0,1,12.5-12.5Z" transform="translate(-188.2 143.21) rotate(-45)"/><path class="cls-1" d="M266.8,19a110.5,110.5,0,1,0,110.5,110.5A110.5,110.5,0,0,0,266.8,19Zm0,189a78.5,78.5,0,1,1,78.5-78.5A78.51,78.51,0,0,1,266.8,208Z" transform="translate(-19.4 -19.04)"/></svg>