<svg id="Layer_1" data-name="Layer 1" xmlns="http://www.w3.org/2000/svg" viewBox="0 0 290.61 281.97"><defs><style>.cls-1{fill:#221f20;}.cls-2{fill:#fff;}</style></defs><path class="cls-1" d="M121.93,118h184a16,16,0,0,1,16,16v0a16,16,0,0,1-16,16h-184a0,0,0,0,1,0,0V118a0,0,0,0,1,0,0Z" transform="translate(389.17 201.05) rotate(-180)"/><path class="cls-1" d="M241,84.52h65.52a16,16,0,0,1,16,16v0a16,16,0,0,1-16,16H241a0,0,0,0,1,0,0v-32a0,0,0,0,1,0,0Z" transform="translate(355.29 303.85) rotate(-135)"/><path class="cls-1" d="M241,151.54h65.52a16,16,0,0,1,16,16v0a16,16,0,0,1-16,16H241a0,0,0,0,1,0,0v-32a0,0,0,0,1,0,0Z" transform="translate(544.84 19.73) rotate(135)"/><rect class="cls-1" x="299.31" y="118.03" width="32" height="32" transform="translate(388.79 384.75) rotate(-135)"/><path class="cls-1" d="M24,199H208a16,16,0,0,1,16,16v0a16,16,0,0,1-16,16H24a0,0,0,0,1,0,0V199a0,0,0,0,1,0,0Z"/><path class="cls-1" d="M77.44,232.46H143a16,16,0,0,1,16,16v0a16,16,0,0,1-16,16H77.44a0,0,0,0,1,0,0v-32a0,0,0,0,1,0,0Z" transform="translate(-195.77 89.34) rotate(-45)"/><path class="cls-1" d="M77.44,299.48H143a16,16,0,0,1,16,16v0a16,16,0,0,1-16,16H77.44a0,0,0,0,1,0,0v-32a0,0,0,0,1,0,0Z" transform="translate(203 -58.19) rotate(45)"/><rect class="cls-1" x="68.69" y="265.97" width="32" height="32" transform="translate(-229.27 75.46) rotate(-45)"/><circle cx="30" cy="67.02" r="29.76"/><circle class="cls-2" cx="30" cy="67.02" r="10.9"/><rect class="cls-2" y="64.37" width="59.99" height="5.29"/><circle cx="30.18" cy="67.02" r="6.52"/><circle cx="260.61" cy="214.95" r="29.76"/><circle class="cls-2" cx="260.61" cy="214.95" r="10.9"/><rect class="cls-2" x="230.62" y="212.31" width="59.99" height="5.29"/><circle cx="260.8" cy="214.95" r="6.52"/></svg>