<svg id="Layer_1" data-name="Layer 1" xmlns="http://www.w3.org/2000/svg" viewBox="0 0 160.79 148.97"><defs><style>.cls-1{fill:none;stroke:#fff;stroke-miterlimit:10;stroke-width:5px;}</style></defs><path d="M235.84,273.91c-11.52,0-23,0-34.56,0-7.41,0-11-4-11.43-11.46-1.25-21.55,14-37.19,30.31-38.85,11.21-1.14,23-1.5,33.93.56,18.08,3.41,30.15,20.28,27.86,41.55-.52,4.77-5.05,8.17-10.32,8.19C259.7,273.94,247.77,273.91,235.84,273.91Z" transform="translate(-121.43 -130.53)"/><path d="M263.87,186.65c-1.83,14.85-13.9,24.9-29,24.67-13.53-.21-25.49-11.06-26.71-24.66,5.05,0,10.07-.08,15.09.07a3.68,3.68,0,0,1,2.33,1.68c5.75,8.71,14.85,8.65,20.86-.15a3.66,3.66,0,0,1,2.41-1.54C253.79,186.58,258.7,186.65,263.87,186.65Z" transform="translate(-121.43 -130.53)"/><path d="M263.8,180c-5.06,0-10.11.1-15.14-.1-.89,0-2-1.15-2.55-2-5.21-8.06-15-8.08-20.23,0-.58.89-1.65,2-2.53,2.06-5,.2-10.08.1-15.15.1,1.21-14,13.5-24.7,28-24.68C250.34,155.38,262.58,166.14,263.8,180Z" transform="translate(-121.43 -130.53)"/><path d="M236,178.36c3,.33,4.8,1.77,4.93,4.89a4.7,4.7,0,0,1-5.11,5c-3.06-.19-4.74-1.91-4.71-5S233,178.71,236,178.36Z" transform="translate(-121.43 -130.53)"/><path d="M167.5,273.91c-11.52,0-23,0-34.56,0-7.41,0-11-4-11.43-11.46-1.26-21.55,14-37.19,30.31-38.85,11.21-1.14,23-1.5,33.93.56,18.07,3.41,30.15,20.28,27.85,41.55-.51,4.77-5,8.17-10.31,8.19C191.36,273.94,179.43,273.91,167.5,273.91Z" transform="translate(-121.43 -130.53)"/><path d="M195.53,186.65c-1.83,14.85-13.9,24.9-29,24.67-13.52-.21-25.48-11.06-26.7-24.66,5,0,10.07-.08,15.08.07a3.7,3.7,0,0,1,2.34,1.68c5.75,8.71,14.85,8.65,20.85-.15a3.68,3.68,0,0,1,2.41-1.54C185.44,186.58,190.36,186.65,195.53,186.65Z" transform="translate(-121.43 -130.53)"/><path d="M195.46,180c-5.07,0-10.11.1-15.14-.1-.89,0-2-1.15-2.55-2-5.21-8.06-15-8.08-20.23,0-.58.89-1.65,2-2.53,2.06-5,.2-10.08.1-15.15.1,1.2-14,13.5-24.7,28-24.68C182,155.38,194.23,166.14,195.46,180Z" transform="translate(-121.43 -130.53)"/><path d="M167.63,178.36c3,.33,4.81,1.77,4.93,4.89a4.69,4.69,0,0,1-5.11,5c-3.06-.19-4.73-1.91-4.7-5S164.69,178.71,167.63,178.36Z" transform="translate(-121.43 -130.53)"/><path class="cls-1" d="M201.13,277c-14.15,0-28.31,0-42.46,0-8.7,0-13.17-4.88-13.7-13.58-1.62-26.68,17.11-45.53,37-47.55,13.6-1.38,27.85-1.74,41.2.76,21,3.92,36.29,23.53,33.71,50.09-.58,6-6.08,10.25-12.76,10.27C229.77,277,215.45,277,201.13,277Z" transform="translate(-121.43 -130.53)"/><path d="M201.13,277c-14.15,0-28.31,0-42.46,0-8.7,0-13.17-4.88-13.7-13.58-1.62-26.68,17.11-45.53,37-47.55,13.6-1.38,27.85-1.74,41.2.76,21,3.92,36.29,23.53,33.71,50.09-.58,6-6.08,10.25-12.76,10.27C229.77,277,215.45,277,201.13,277Z" transform="translate(-121.43 -130.53)"/><path class="cls-1" d="M234.63,171c-.61,15.72-15.75,29.68-32.07,29.95-18.63.31-34-12.55-35.3-29.95,6.15,0,12.27-.12,18.38.12,1.07,0,2.36,1.43,3.05,2.51,6.28,9.76,18.29,9.8,24.56.1.76-1.18,2.27-2.56,3.48-2.61C222.69,170.88,228.66,171,234.63,171Z" transform="translate(-121.43 -130.53)"/><path d="M234.63,171c-.61,15.72-15.75,29.68-32.07,29.95-18.63.31-34-12.55-35.3-29.95,6.15,0,12.27-.12,18.38.12,1.07,0,2.36,1.43,3.05,2.51,6.28,9.76,18.29,9.8,24.56.1.76-1.18,2.27-2.56,3.48-2.61C222.69,170.88,228.66,171,234.63,171Z" transform="translate(-121.43 -130.53)"/><path class="cls-1" d="M234.76,163c-6.15,0-12.28.13-18.39-.11-1.07,0-2.39-1.4-3.09-2.48-6.32-9.79-18.26-9.81-24.57,0-.7,1.08-2,2.46-3.07,2.51-6.11.24-12.24.11-18.4.11,1.47-17,16.4-30,34-30C218.42,133.05,233.27,146.12,234.76,163Z" transform="translate(-121.43 -130.53)"/><path d="M234.76,163c-6.15,0-12.28.13-18.39-.11-1.07,0-2.39-1.4-3.09-2.48-6.32-9.79-18.26-9.81-24.57,0-.7,1.08-2,2.46-3.07,2.51-6.11.24-12.24.11-18.4.11,1.47-17,16.4-30,34-30C218.42,133.05,233.27,146.12,234.76,163Z" transform="translate(-121.43 -130.53)"/><path class="cls-1" d="M207.05,167.17c-.42,3.56-2.26,5.77-6,5.77s-5.81-2-6-5.76a5.72,5.72,0,0,1,6.17-6.12C204.92,161.28,206.76,163.46,207.05,167.17Z" transform="translate(-121.43 -130.53)"/><path d="M207.05,167.17c-.42,3.56-2.26,5.77-6,5.77s-5.81-2-6-5.76a5.72,5.72,0,0,1,6.17-6.12C204.92,161.28,206.76,163.46,207.05,167.17Z" transform="translate(-121.43 -130.53)"/></svg>